<svg width="139" height="34" viewBox="0 0 139 34" fill="none" xmlns="http://www.w3.org/2000/svg">
<path d="M42.912 24.312C42.208 24.312 41.488 24.184 40.752 23.928C40.032 23.656 39.36 23.264 38.736 22.752C38.128 22.224 37.64 21.584 37.272 20.832C36.904 20.064 36.72 19.184 36.72 18.192C36.72 17.2 36.904 16.328 37.272 15.576C37.64 14.824 38.128 14.192 38.736 13.68C39.344 13.168 40.008 12.784 40.728 12.528C41.464 12.256 42.176 12.12 42.864 12.12C43.456 12.12 43.984 12.192 44.448 12.336C44.928 12.464 45.328 12.624 45.648 12.816C45.984 13.008 46.224 13.176 46.368 13.32C46.64 13.528 46.88 13.736 47.088 13.944C47.296 14.152 47.392 14.424 47.376 14.76C47.36 14.936 47.304 15.12 47.208 15.312C47.112 15.488 46.992 15.672 46.848 15.864C46.368 16.536 45.888 16.84 45.408 16.776C45.168 16.728 44.944 16.648 44.736 16.536C44.544 16.424 44.352 16.312 44.16 16.2C43.984 16.072 43.792 15.968 43.584 15.888C43.376 15.808 43.136 15.768 42.864 15.768C42.4 15.768 41.984 15.872 41.616 16.08C41.248 16.288 40.952 16.576 40.728 16.944C40.52 17.312 40.416 17.736 40.416 18.216C40.416 18.68 40.52 19.096 40.728 19.464C40.952 19.832 41.24 20.128 41.592 20.352C41.96 20.56 42.368 20.664 42.816 20.664C43.088 20.664 43.32 20.632 43.512 20.568C43.72 20.504 43.896 20.432 44.04 20.352C44.184 20.256 44.296 20.184 44.376 20.136C44.568 20.008 44.752 19.896 44.928 19.8C45.104 19.688 45.288 19.632 45.48 19.632C45.704 19.632 45.936 19.72 46.176 19.896C46.416 20.056 46.68 20.32 46.968 20.688C47.224 21.024 47.368 21.336 47.4 21.624C47.448 21.912 47.384 22.184 47.208 22.44C47.032 22.696 46.76 22.944 46.392 23.184C46.264 23.296 46.032 23.44 45.696 23.616C45.376 23.792 44.976 23.952 44.496 24.096C44.032 24.24 43.504 24.312 42.912 24.312ZM54.8612 24.408C54.1092 24.408 53.3572 24.264 52.6052 23.976C51.8692 23.672 51.1972 23.248 50.5892 22.704C49.9812 22.16 49.5012 21.512 49.1492 20.76C48.7972 19.992 48.6212 19.144 48.6212 18.216C48.6212 17.352 48.7812 16.552 49.1012 15.816C49.4212 15.064 49.8692 14.4 50.4452 13.824C51.0212 13.248 51.6772 12.8 52.4132 12.48C53.1652 12.144 53.9652 11.976 54.8132 11.976C55.9652 11.976 57.0052 12.256 57.9332 12.816C58.8772 13.36 59.6292 14.104 60.1892 15.048C60.7492 15.992 61.0292 17.04 61.0292 18.192C61.0292 19.168 60.8452 20.04 60.4772 20.808C60.1252 21.56 59.6452 22.208 59.0372 22.752C58.4452 23.296 57.7812 23.712 57.0452 24C56.3252 24.272 55.5972 24.408 54.8612 24.408ZM54.8132 20.784C55.1972 20.784 55.5892 20.688 55.9892 20.496C56.3892 20.304 56.7252 20.016 56.9972 19.632C57.2692 19.248 57.4052 18.76 57.4052 18.168C57.4052 17.656 57.2932 17.208 57.0692 16.824C56.8452 16.44 56.5332 16.144 56.1332 15.936C55.7492 15.712 55.3012 15.6 54.7892 15.6C54.3092 15.6 53.8772 15.712 53.4932 15.936C53.1252 16.16 52.8212 16.472 52.5812 16.872C52.3572 17.256 52.2452 17.696 52.2452 18.192C52.2452 18.768 52.3732 19.256 52.6292 19.656C52.9012 20.04 53.2372 20.328 53.6372 20.52C54.0372 20.696 54.4292 20.784 54.8132 20.784ZM64.3074 24.192C63.7154 24.192 63.2914 24.112 63.0354 23.952C62.7954 23.776 62.6434 23.552 62.5794 23.28C62.5314 22.992 62.5074 22.696 62.5074 22.392V13.944C62.5074 13.64 62.5394 13.36 62.6034 13.104C62.6674 12.832 62.8194 12.616 63.0594 12.456C63.3154 12.296 63.7394 12.216 64.3314 12.216C64.8434 12.216 65.2194 12.288 65.4594 12.432C65.6994 12.56 65.8514 12.72 65.9154 12.912C65.9954 13.104 66.0354 13.288 66.0354 13.464C66.0354 13.624 66.0514 13.736 66.0834 13.8L65.9394 14.256C65.9714 14.016 66.0914 13.776 66.2994 13.536C66.5234 13.28 66.7954 13.056 67.1154 12.864C67.4514 12.656 67.8034 12.496 68.1714 12.384C68.5554 12.272 68.9314 12.216 69.2994 12.216C70.0674 12.216 70.7474 12.36 71.3394 12.648C71.9474 12.92 72.4594 13.32 72.8754 13.848C73.2914 14.376 73.6034 15 73.8114 15.72C74.0354 16.424 74.1474 17.2 74.1474 18.048V22.416C74.1474 22.72 74.1154 23.016 74.0514 23.304C74.0034 23.576 73.8514 23.792 73.5954 23.952C73.3554 24.112 72.9394 24.192 72.3474 24.192C71.7394 24.192 71.3074 24.112 71.0514 23.952C70.8114 23.776 70.6594 23.552 70.5954 23.28C70.5314 22.992 70.4994 22.696 70.4994 22.392V18.048C70.4994 17.568 70.4194 17.16 70.2594 16.824C70.0994 16.488 69.8594 16.232 69.5394 16.056C69.2194 15.864 68.8274 15.768 68.3634 15.768C67.8994 15.768 67.4994 15.864 67.1634 16.056C66.8274 16.248 66.5634 16.512 66.3714 16.848C66.1954 17.184 66.1074 17.584 66.1074 18.048V22.416C66.1074 22.72 66.0754 23.016 66.0114 23.304C65.9634 23.576 65.8114 23.792 65.5554 23.952C65.3154 24.112 64.8994 24.192 64.3074 24.192ZM77.8309 24.192C77.2389 24.192 76.8149 24.112 76.5589 23.952C76.3189 23.776 76.1669 23.552 76.1029 23.28C76.0549 22.992 76.0309 22.696 76.0309 22.392V13.944C76.0309 13.64 76.0629 13.36 76.1269 13.104C76.1909 12.832 76.3429 12.616 76.5829 12.456C76.8389 12.296 77.2629 12.216 77.8549 12.216C78.3669 12.216 78.7429 12.288 78.9829 12.432C79.2229 12.56 79.3749 12.72 79.4389 12.912C79.5189 13.104 79.5589 13.288 79.5589 13.464C79.5589 13.624 79.5749 13.736 79.6069 13.8L79.4629 14.256C79.4949 14.016 79.6149 13.776 79.8229 13.536C80.0469 13.28 80.3189 13.056 80.6389 12.864C80.9749 12.656 81.3269 12.496 81.6949 12.384C82.0789 12.272 82.4549 12.216 82.8229 12.216C83.5909 12.216 84.2709 12.36 84.8629 12.648C85.4709 12.92 85.9829 13.32 86.3989 13.848C86.8149 14.376 87.1269 15 87.3349 15.72C87.5589 16.424 87.6709 17.2 87.6709 18.048V22.416C87.6709 22.72 87.6389 23.016 87.5749 23.304C87.5269 23.576 87.3749 23.792 87.1189 23.952C86.8789 24.112 86.4629 24.192 85.8709 24.192C85.2629 24.192 84.8309 24.112 84.5749 23.952C84.3349 23.776 84.1829 23.552 84.1189 23.28C84.0549 22.992 84.0229 22.696 84.0229 22.392V18.048C84.0229 17.568 83.9429 17.16 83.7829 16.824C83.6229 16.488 83.3829 16.232 83.0629 16.056C82.7429 15.864 82.3509 15.768 81.8869 15.768C81.4229 15.768 81.0229 15.864 80.6869 16.056C80.3509 16.248 80.0869 16.512 79.8949 16.848C79.7189 17.184 79.6309 17.584 79.6309 18.048V22.416C79.6309 22.72 79.5989 23.016 79.5349 23.304C79.4869 23.576 79.3349 23.792 79.0789 23.952C78.8389 24.112 78.4229 24.192 77.8309 24.192ZM95.5063 24.432C94.3863 24.432 93.4183 24.248 92.6023 23.88C91.8023 23.512 91.1463 23.032 90.6343 22.44C90.1223 21.832 89.7383 21.16 89.4823 20.424C89.2423 19.688 89.1223 18.952 89.1223 18.216C89.1223 17.016 89.3943 15.952 89.9383 15.024C90.4823 14.096 91.2343 13.368 92.1943 12.84C93.1543 12.296 94.2583 12.024 95.5063 12.024C96.4343 12.024 97.2343 12.176 97.9063 12.48C98.5943 12.768 99.1543 13.152 99.5863 13.632C100.034 14.096 100.362 14.6 100.57 15.144C100.794 15.688 100.906 16.208 100.906 16.704C100.906 17.584 100.69 18.24 100.258 18.672C99.8423 19.088 99.3063 19.296 98.6503 19.296H92.9383C92.9703 19.712 93.1143 20.064 93.3703 20.352C93.6423 20.64 93.9783 20.864 94.3783 21.024C94.7783 21.184 95.2023 21.264 95.6503 21.264C96.0343 21.264 96.3703 21.248 96.6583 21.216C96.9463 21.168 97.1943 21.112 97.4023 21.048C97.6103 20.968 97.8023 20.896 97.9783 20.832C98.1543 20.752 98.3063 20.688 98.4343 20.64C98.5783 20.592 98.7143 20.56 98.8423 20.544C99.0823 20.528 99.2983 20.6 99.4903 20.76C99.6983 20.904 99.8823 21.128 100.042 21.432C100.154 21.608 100.226 21.776 100.258 21.936C100.306 22.096 100.33 22.256 100.33 22.416C100.33 22.8 100.13 23.144 99.7303 23.448C99.3463 23.752 98.7943 23.992 98.0743 24.168C97.3703 24.344 96.5143 24.432 95.5063 24.432ZM92.9383 17.328H96.7303C96.9863 17.328 97.1703 17.288 97.2823 17.208C97.4103 17.112 97.4743 16.936 97.4743 16.68C97.4743 16.392 97.3863 16.144 97.2103 15.936C97.0343 15.712 96.7943 15.544 96.4903 15.432C96.2023 15.304 95.8663 15.24 95.4823 15.24C94.9863 15.24 94.5463 15.336 94.1623 15.528C93.7783 15.72 93.4743 15.976 93.2503 16.296C93.0423 16.616 92.9383 16.96 92.9383 17.328ZM112.813 12.72C113.165 13.056 113.389 13.36 113.485 13.632C113.597 13.888 113.597 14.152 113.485 14.424C113.373 14.68 113.149 14.984 112.813 15.336L105.181 23.592C104.877 23.912 104.597 24.128 104.341 24.24C104.085 24.368 103.821 24.384 103.549 24.288C103.293 24.192 102.997 23.984 102.661 23.664C102.325 23.328 102.101 23.032 101.989 22.776C101.893 22.504 101.901 22.24 102.013 21.984C102.141 21.712 102.357 21.416 102.661 21.096L110.293 12.816C110.789 12.32 111.205 12.064 111.541 12.048C111.893 12.016 112.317 12.24 112.813 12.72ZM102.661 12.72C102.997 12.4 103.293 12.192 103.549 12.096C103.821 12 104.085 12.016 104.341 12.144C104.597 12.256 104.877 12.48 105.181 12.816L112.813 21.096C113.133 21.432 113.349 21.728 113.461 21.984C113.589 22.24 113.605 22.504 113.509 22.776C113.413 23.032 113.181 23.328 112.813 23.664C112.477 23.984 112.181 24.192 111.925 24.288C111.669 24.384 111.413 24.368 111.157 24.24C110.917 24.128 110.629 23.912 110.293 23.592L102.661 15.336C102.341 15 102.125 14.704 102.013 14.448C101.901 14.176 101.893 13.904 101.989 13.632C102.101 13.36 102.325 13.056 102.661 12.72ZM120.167 24.192C119.431 24.192 118.735 24.048 118.079 23.76C117.439 23.472 116.879 23.072 116.399 22.56C115.919 22.032 115.543 21.416 115.271 20.712C115.015 19.992 114.887 19.208 114.887 18.36V14.016C114.887 13.696 114.919 13.4 114.983 13.128C115.047 12.856 115.199 12.632 115.439 12.456C115.695 12.28 116.119 12.192 116.711 12.192C117.303 12.192 117.719 12.28 117.959 12.456C118.215 12.632 118.367 12.864 118.415 13.152C118.479 13.424 118.511 13.72 118.511 14.04V18.36C118.511 18.824 118.591 19.232 118.751 19.584C118.927 19.92 119.175 20.176 119.495 20.352C119.831 20.528 120.223 20.616 120.671 20.616C121.135 20.616 121.527 20.528 121.847 20.352C122.183 20.16 122.439 19.896 122.615 19.56C122.807 19.224 122.903 18.824 122.903 18.36V13.992C122.903 13.672 122.935 13.376 122.999 13.104C123.063 12.832 123.215 12.616 123.455 12.456C123.711 12.28 124.135 12.192 124.727 12.192C125.319 12.192 125.735 12.28 125.975 12.456C126.231 12.632 126.383 12.864 126.431 13.152C126.495 13.424 126.527 13.712 126.527 14.016V22.464C126.527 22.768 126.495 23.056 126.431 23.328C126.383 23.584 126.231 23.792 125.975 23.952C125.719 24.112 125.303 24.192 124.727 24.192C124.295 24.192 123.959 24.144 123.719 24.048C123.479 23.952 123.303 23.832 123.191 23.688C123.079 23.544 123.007 23.392 122.975 23.232C122.959 23.072 122.951 22.928 122.951 22.8L123.263 22.536C123.215 22.6 123.111 22.72 122.951 22.896C122.791 23.072 122.575 23.264 122.303 23.472C122.047 23.664 121.743 23.832 121.391 23.976C121.039 24.12 120.631 24.192 120.167 24.192ZM132.757 24.408C132.325 24.408 131.853 24.36 131.341 24.264C130.845 24.168 130.357 24.032 129.877 23.856C129.397 23.664 128.997 23.448 128.677 23.208C128.357 22.952 128.173 22.664 128.125 22.344C128.093 22.184 128.093 22.016 128.125 21.84C128.173 21.648 128.253 21.456 128.365 21.264C128.477 21.056 128.613 20.84 128.773 20.616C128.901 20.44 129.045 20.328 129.205 20.28C129.365 20.232 129.549 20.24 129.757 20.304C130.013 20.352 130.269 20.44 130.525 20.568C130.797 20.68 131.061 20.808 131.317 20.952C131.589 21.08 131.869 21.2 132.157 21.312C132.445 21.408 132.741 21.456 133.045 21.456C133.493 21.456 133.837 21.392 134.077 21.264C134.333 21.12 134.461 20.928 134.461 20.688C134.461 20.512 134.405 20.368 134.293 20.256C134.197 20.144 134.053 20.048 133.861 19.968C133.685 19.872 133.477 19.792 133.237 19.728C132.997 19.664 132.733 19.6 132.445 19.536C132.173 19.456 131.893 19.376 131.605 19.296C131.205 19.184 130.821 19.04 130.453 18.864C130.085 18.688 129.749 18.464 129.445 18.192C129.141 17.904 128.901 17.56 128.725 17.16C128.549 16.744 128.461 16.24 128.461 15.648C128.461 14.864 128.645 14.208 129.013 13.68C129.381 13.152 129.917 12.752 130.621 12.48C131.325 12.192 132.181 12.048 133.189 12.048C133.477 12.048 133.765 12.064 134.053 12.096C134.341 12.128 134.621 12.184 134.893 12.264C135.181 12.344 135.461 12.44 135.733 12.552C136.005 12.664 136.277 12.8 136.549 12.96C137.029 13.184 137.277 13.488 137.293 13.872C137.309 14.256 137.173 14.648 136.885 15.048C136.709 15.32 136.525 15.52 136.333 15.648C136.141 15.76 135.941 15.792 135.733 15.744C135.477 15.68 135.197 15.576 134.893 15.432C134.605 15.288 134.293 15.152 133.957 15.024C133.637 14.896 133.317 14.832 132.997 14.832C132.725 14.832 132.493 14.872 132.301 14.952C132.109 15.016 131.965 15.112 131.869 15.24C131.773 15.352 131.725 15.488 131.725 15.648C131.725 15.856 131.781 16.024 131.893 16.152C132.021 16.264 132.189 16.36 132.397 16.44C132.605 16.52 132.845 16.592 133.117 16.656C133.389 16.72 133.685 16.784 134.005 16.848C134.437 16.928 134.877 17.04 135.325 17.184C135.789 17.312 136.205 17.504 136.573 17.76C136.957 18.016 137.261 18.36 137.485 18.792C137.725 19.224 137.845 19.792 137.845 20.496C137.845 21.76 137.405 22.728 136.525 23.4C135.645 24.072 134.389 24.408 132.757 24.408Z" fill="black"/>
<line x1="3.85086" y1="8.52276" x2="19.8509" y2="3.52276" stroke="#68607C"/>
<line x1="20.4358" y1="3.75487" x2="29.4358" y2="19.7549" stroke="#68607C"/>
<line x1="18.499" y1="14.9688" x2="19.499" y2="30.9688" stroke="#68607C"/>
<line x1="17.6464" y1="30.6464" x2="28.6464" y2="19.6464" stroke="#68607C"/>
<line x1="4.06202" y1="28.5039" x2="20.062" y2="30.5039" stroke="#68607C"/>
<line x1="4.41311" y1="8.71833" x2="19.4131" y2="30.7183" stroke="#68607C"/>
<line x1="4.20137" y1="8.54234" x2="29.2014" y2="19.5423" stroke="#68607C"/>
<line x1="4.56375" y1="28.7557" x2="18.5637" y2="3.7557" stroke="#68607C"/>
<circle cx="3.5" cy="8.5" r="3.5" fill="#FFD086"/>
<circle cx="18.5" cy="30.5" r="3.5" fill="#1A7DFF"/>
<circle cx="4.5" cy="27.5" r="3.5" fill="#87DBFF"/>
<circle cx="28.5" cy="19.5" r="3.5" fill="#87DBFF"/>
<circle cx="20.5" cy="3.5" r="3.5" fill="#F69489"/>
<circle cx="18.5" cy="15.5" r="3.5" fill="#ED6571"/>
</svg>
